<?xml version="1.0" encoding="UTF-8" standalone="no"?>
<svg width="15px" height="15px" viewBox="0 0 15 15" version="1.1" xmlns="http://www.w3.org/2000/svg" xmlns:xlink="http://www.w3.org/1999/xlink" xmlns:sketch="http://www.bohemiancoding.com/sketch/ns">
    <!-- Generator: Sketch 3.4.2 (15857) - http://www.bohemiancoding.com/sketch -->
    <title>Shape</title>
    <desc>Created with Sketch.</desc>
    <defs></defs>
    <g id="Stickersheet" stroke="none" stroke-width="1" fill="none" fill-rule="evenodd" sketch:type="MSPage">
        <g id="blue" sketch:type="MSArtboardGroup" transform="translate(-701.000000, -644.000000)" fill="#B7F6FF">
            <g id="radio-on" sketch:type="MSLayerGroup" transform="translate(700.000000, 643.000000)">
                <path d="M8.24023438,4.80680339 C6.31751302,4.80680339 4.80680339,6.31751302 4.80680339,8.24023437 C4.80680339,10.1629557 6.31751302,11.6736654 8.24023438,11.6736654 C10.1629557,11.6736654 11.6736654,10.1629557 11.6736654,8.24023437 C11.6736654,6.31751302 10.1629557,4.80680339 8.24023438,4.80680339 L8.24023438,4.80680339 Z M8.24023438,1.3733724 C4.46346029,1.3733724 1.3733724,4.46346029 1.3733724,8.24023437 C1.3733724,12.0170085 4.46346029,15.1070964 8.24023438,15.1070964 C12.0170085,15.1070964 15.1070964,12.0170085 15.1070964,8.24023437 C15.1070964,4.46346029 12.0170085,1.3733724 8.24023438,1.3733724 L8.24023438,1.3733724 Z M8.24023438,13.733724 C5.2188151,13.733724 2.74674479,11.2616536 2.74674479,8.24023437 C2.74674479,5.2188151 5.2188151,2.74674479 8.24023438,2.74674479 C11.2616536,2.74674479 13.733724,5.2188151 13.733724,8.24023437 C13.733724,11.2616536 11.2616536,13.733724 8.24023438,13.733724 L8.24023438,13.733724 Z" id="Shape" sketch:type="MSShapeGroup"></path>
            </g>
        </g>
    </g>
</svg>